<svg id="visual" viewBox="0 0 960 540" width="960" height="540" xmlns="http://www.w3.org/2000/svg" xmlns:xlink="http://www.w3.org/1999/xlink" version="1.1"><path d="M0 444L22.8 439.8C45.7 435.7 91.3 427.3 137 422.3C182.7 417.3 228.3 415.7 274 420.3C319.7 425 365.3 436 411.2 435.3C457 434.7 503 422.3 548.8 422.7C594.7 423 640.3 436 686 444.2C731.7 452.3 777.3 455.7 823 452.7C868.7 449.7 914.3 440.3 937.2 435.7L960 431L960 541L937.2 541C914.3 541 868.7 541 823 541C777.3 541 731.7 541 686 541C640.3 541 594.7 541 548.8 541C503 541 457 541 411.2 541C365.3 541 319.7 541 274 541C228.3 541 182.7 541 137 541C91.3 541 45.7 541 22.8 541L0 541Z" fill="#3789cc" stroke-linecap="round" stroke-linejoin="miter"></path></svg>